<svg width="54" height="54" viewBox="0 0 54 54" fill="none" xmlns="http://www.w3.org/2000/svg">
<path d="M27 4.5C14.5733 4.5 4.5 14.5733 4.5 27C4.5 39.4267 14.5733 49.5 27 49.5C39.4267 49.5 49.5 39.4267 49.5 27C49.5 14.5733 39.4267 4.5 27 4.5Z" stroke="#FAFAFA" stroke-width="3" stroke-linecap="round" stroke-linejoin="round"/>
<path d="M9.60986 41.2785C9.60986 41.2785 14.6251 34.875 27.0001 34.875C39.3751 34.875 44.3926 41.2785 44.3926 41.2785M27.0001 27C28.7903 27 30.5072 26.2888 31.7731 25.023C33.039 23.7571 33.7501 22.0402 33.7501 20.25C33.7501 18.4598 33.039 16.7429 31.7731 15.477C30.5072 14.2112 28.7903 13.5 27.0001 13.5C25.2099 13.5 23.493 14.2112 22.2271 15.477C20.9613 16.7429 20.2501 18.4598 20.2501 20.25C20.2501 22.0402 20.9613 23.7571 22.2271 25.023C23.493 26.2888 25.2099 27 27.0001 27Z" stroke="#FAFAFA" stroke-width="3" stroke-linecap="round" stroke-linejoin="round"/>
</svg>